<mxfile host="app.diagrams.net" modified="2023-07-31T01:25:52.245Z" agent="Mozilla/5.0 (Windows NT 10.0; Win64; x64) AppleWebKit/537.36 (KHTML, like Gecko) Chrome/115.0.0.0 Safari/537.36" etag="Lq6RxLBEcbnMnxR8HKfe" version="21.6.5" type="device">
  <diagram name="Page-1" id="3sjXqic4Hi6Kg1_n2dyk">
    <mxGraphModel dx="1434" dy="790" grid="1" gridSize="10" guides="1" tooltips="1" connect="1" arrows="1" fold="1" page="1" pageScale="1" pageWidth="850" pageHeight="1100" math="0" shadow="0">
      <root>
        <mxCell id="0" />
        <mxCell id="1" parent="0" />
        <mxCell id="qZNQM_HUUjyLcNN3R2bu-2" value="" style="rounded=0;whiteSpace=wrap;html=1;" vertex="1" parent="1">
          <mxGeometry width="850" height="480" as="geometry" />
        </mxCell>
        <mxCell id="qZNQM_HUUjyLcNN3R2bu-4" value="Social Media" style="ellipse;whiteSpace=wrap;html=1;aspect=fixed;" vertex="1" parent="1">
          <mxGeometry x="408" y="440" width="35" height="35" as="geometry" />
        </mxCell>
        <mxCell id="qZNQM_HUUjyLcNN3R2bu-6" value="&lt;font style=&quot;&quot;&gt;&lt;font style=&quot;font-size: 32px;&quot;&gt;Oscar Obrien Photography&lt;/font&gt;&lt;br&gt;&lt;/font&gt;" style="text;strokeColor=none;fillColor=none;align=center;verticalAlign=middle;spacingLeft=4;spacingRight=4;overflow=hidden;points=[[0,0.5],[1,0.5]];portConstraint=eastwest;rotatable=0;whiteSpace=wrap;html=1;" vertex="1" parent="1">
          <mxGeometry x="225" y="130" width="400" height="60" as="geometry" />
        </mxCell>
        <mxCell id="qZNQM_HUUjyLcNN3R2bu-7" value="Logo" style="ellipse;whiteSpace=wrap;html=1;aspect=fixed;" vertex="1" parent="1">
          <mxGeometry x="405" y="250" width="40" height="40" as="geometry" />
        </mxCell>
        <mxCell id="qZNQM_HUUjyLcNN3R2bu-9" value="&lt;font style=&quot;&quot;&gt;Lorem ipsum dolor sit amet, consectetur adipiscing elit, sed do eiusmod tempor incididunt ut labore et dolore magna aliqua. Vel pharetra vel turpis nunc eget lorem. Mauris pellentesque pulvinar pellentesque habitant morbi tristique. Mattis ullamcorper velit sed ullamcorper.&lt;br&gt;&lt;/font&gt;" style="text;strokeColor=none;fillColor=none;align=center;verticalAlign=middle;spacingLeft=4;spacingRight=4;overflow=hidden;points=[[0,0.5],[1,0.5]];portConstraint=eastwest;rotatable=0;whiteSpace=wrap;html=1;" vertex="1" parent="1">
          <mxGeometry x="200" y="180" width="450" height="60" as="geometry" />
        </mxCell>
        <mxCell id="qZNQM_HUUjyLcNN3R2bu-11" value="&lt;font style=&quot;font-size: 15px;&quot;&gt;Gallery&lt;/font&gt;" style="text;html=1;strokeColor=none;fillColor=none;align=center;verticalAlign=middle;whiteSpace=wrap;rounded=0;" vertex="1" parent="1">
          <mxGeometry x="300" y="255" width="105" height="30" as="geometry" />
        </mxCell>
        <mxCell id="qZNQM_HUUjyLcNN3R2bu-13" value="&lt;span style=&quot;font-size: 15px;&quot;&gt;Blog&lt;/span&gt;" style="text;html=1;strokeColor=none;fillColor=none;align=center;verticalAlign=middle;whiteSpace=wrap;rounded=0;" vertex="1" parent="1">
          <mxGeometry x="440" y="255" width="105" height="30" as="geometry" />
        </mxCell>
        <mxCell id="qZNQM_HUUjyLcNN3R2bu-14" value="" style="rounded=0;whiteSpace=wrap;html=1;" vertex="1" parent="1">
          <mxGeometry x="0.5" y="510" width="850" height="480" as="geometry" />
        </mxCell>
        <mxCell id="qZNQM_HUUjyLcNN3R2bu-15" value="Logo" style="ellipse;whiteSpace=wrap;html=1;aspect=fixed;" vertex="1" parent="1">
          <mxGeometry x="20" y="520" width="40" height="40" as="geometry" />
        </mxCell>
        <mxCell id="qZNQM_HUUjyLcNN3R2bu-16" value="&lt;span style=&quot;font-size: 15px;&quot;&gt;Blog&lt;/span&gt;" style="text;html=1;strokeColor=none;fillColor=none;align=center;verticalAlign=middle;whiteSpace=wrap;rounded=0;" vertex="1" parent="1">
          <mxGeometry x="745" y="520" width="105" height="30" as="geometry" />
        </mxCell>
        <mxCell id="qZNQM_HUUjyLcNN3R2bu-17" value="&lt;font style=&quot;font-size: 15px;&quot;&gt;Gallery&lt;/font&gt;" style="text;html=1;strokeColor=none;fillColor=none;align=center;verticalAlign=middle;whiteSpace=wrap;rounded=0;" vertex="1" parent="1">
          <mxGeometry x="660" y="520" width="105" height="30" as="geometry" />
        </mxCell>
      </root>
    </mxGraphModel>
  </diagram>
</mxfile>
